<svg width="109" height="24" viewBox="0 0 109 24" fill="none" xmlns="http://www.w3.org/2000/svg">
<g clip-path="url(#clip0)">
<path d="M17.63 12.7C17.63 11.464 17.906 10.36 18.458 9.388C19.022 8.404 19.784 7.642 20.744 7.102C21.716 6.55 22.802 6.274 24.002 6.274C25.406 6.274 26.636 6.634 27.692 7.354C28.748 8.074 29.486 9.07 29.906 10.342H27.008C26.72 9.742 26.312 9.292 25.784 8.992C25.268 8.692 24.668 8.542 23.984 8.542C23.252 8.542 22.598 8.716 22.022 9.064C21.458 9.4 21.014 9.88 20.69 10.504C20.378 11.128 20.222 11.86 20.222 12.7C20.222 13.528 20.378 14.26 20.69 14.896C21.014 15.52 21.458 16.006 22.022 16.354C22.598 16.69 23.252 16.858 23.984 16.858C24.668 16.858 25.268 16.708 25.784 16.408C26.312 16.096 26.72 15.64 27.008 15.04H29.906C29.486 16.324 28.748 17.326 27.692 18.046C26.648 18.754 25.418 19.108 24.002 19.108C22.802 19.108 21.716 18.838 20.744 18.298C19.784 17.746 19.022 16.984 18.458 16.012C17.906 15.04 17.63 13.936 17.63 12.7ZM42.4804 6.436V19H39.9604V13.654H34.5784V19H32.0584V6.436H34.5784V11.602H39.9604V6.436H42.4804ZM52.6648 16.606H47.6608L46.8328 19H44.1868L48.7048 6.418H51.6388L56.1568 19H53.4928L52.6648 16.606ZM51.9808 14.59L50.1628 9.334L48.3447 14.59H51.9808ZM60.3655 6.436V19H57.8455V6.436H60.3655ZM77.8903 19H75.3703L69.6643 10.378V19H67.1443V6.418H69.6643L75.3703 15.058V6.418H77.8903V19ZM89.1287 10.216C88.8407 9.688 88.4447 9.286 87.9407 9.01C87.4367 8.734 86.8487 8.596 86.1767 8.596C85.4327 8.596 84.7727 8.764 84.1967 9.1C83.6207 9.436 83.1707 9.916 82.8467 10.54C82.5227 11.164 82.3607 11.884 82.3607 12.7C82.3607 13.54 82.5227 14.272 82.8467 14.896C83.1827 15.52 83.6447 16 84.2327 16.336C84.8207 16.672 85.5047 16.84 86.2847 16.84C87.2447 16.84 88.0307 16.588 88.6427 16.084C89.2547 15.568 89.6567 14.854 89.8487 13.942H85.5287V12.016H92.3327V14.212C92.1647 15.088 91.8047 15.898 91.2527 16.642C90.7007 17.386 89.9867 17.986 89.1107 18.442C88.2467 18.886 87.2747 19.108 86.1947 19.108C84.9827 19.108 83.8847 18.838 82.9007 18.298C81.9287 17.746 81.1607 16.984 80.5967 16.012C80.0447 15.04 79.7687 13.936 79.7687 12.7C79.7687 11.464 80.0447 10.36 80.5967 9.388C81.1607 8.404 81.9287 7.642 82.9007 7.102C83.8847 6.55 84.9767 6.274 86.1767 6.274C87.5927 6.274 88.8227 6.622 89.8667 7.318C90.9107 8.002 91.6307 8.968 92.0267 10.216H89.1287Z" fill="#6B91C4"/>
</g>
<defs>
<clipPath id="clip0">
<rect width="109" height="24" fill="white"/>
</clipPath>
</defs>
</svg>
