<svg width="150" height="34" viewBox="0 0 150 34" fill="none" xmlns="http://www.w3.org/2000/svg">
<path d="M24.1609 5.61C26.8009 5.61 28.9909 6.29 30.7309 7.65C32.4709 9.01 33.6209 10.86 34.1809 13.2H29.7409C29.2809 12.06 28.5609 11.16 27.5809 10.5C26.6209 9.84 25.4609 9.51 24.1009 9.51C22.9809 9.51 21.9709 9.79 21.0709 10.35C20.1709 10.91 19.4709 11.71 18.9709 12.75C18.4709 13.79 18.2209 15.01 18.2209 16.41C18.2209 17.79 18.4709 19 18.9709 20.04C19.4709 21.08 20.1709 21.88 21.0709 22.44C21.9709 23 22.9809 23.28 24.1009 23.28C25.4609 23.28 26.6209 22.95 27.5809 22.29C28.5609 21.63 29.2809 20.73 29.7409 19.59H34.1809C33.6209 21.93 32.4709 23.78 30.7309 25.14C28.9909 26.5 26.8009 27.18 24.1609 27.18C22.1409 27.18 20.3509 26.73 18.7909 25.83C17.2509 24.91 16.0509 23.63 15.1909 21.99C14.3509 20.35 13.9309 18.49 13.9309 16.41C13.9309 14.31 14.3509 12.44 15.1909 10.8C16.0509 9.16 17.2509 7.89 18.7909 6.99C20.3309 6.07 22.1209 5.61 24.1609 5.61ZM54.9046 5.82V27H50.6446V17.79H41.5846V27H37.3546V5.82H41.5846V14.4H50.6446V5.82H54.9046ZM71.6413 22.74H63.1513L61.6513 27H57.1813L64.9813 6.06H69.8113L77.5813 27H73.1113L71.6413 22.74ZM70.5013 19.53L67.3813 10.59L64.2613 19.53H70.5013ZM84.0943 5.82V27H79.8643V5.82H84.0943ZM112.394 27H108.164L98.6842 12.6V27H94.4542V5.82H98.6842L108.164 20.34V5.82H112.394V27ZM126.032 5.61C128.612 5.61 130.752 6.25 132.452 7.53C134.152 8.79 135.242 10.5 135.722 12.66H131.282C130.862 11.7 130.192 10.94 129.272 10.38C128.372 9.8 127.302 9.51 126.062 9.51C124.842 9.51 123.762 9.79 122.822 10.35C121.882 10.91 121.152 11.71 120.632 12.75C120.112 13.79 119.852 15.01 119.852 16.41C119.852 18.63 120.442 20.36 121.622 21.6C122.822 22.84 124.452 23.46 126.512 23.46C128.032 23.46 129.332 23.01 130.412 22.11C131.512 21.21 132.222 19.96 132.542 18.36H125.372V15.33H136.082V19.41C135.782 20.81 135.192 22.1 134.312 23.28C133.452 24.46 132.312 25.41 130.892 26.13C129.492 26.83 127.882 27.18 126.062 27.18C123.982 27.18 122.142 26.73 120.542 25.83C118.962 24.91 117.732 23.64 116.852 22.02C115.992 20.38 115.562 18.51 115.562 16.41C115.562 14.31 115.992 12.45 116.852 10.83C117.732 9.19 118.962 7.91 120.542 6.99C122.122 6.07 123.952 5.61 126.032 5.61Z" fill="white"/>
</svg>
