<svg width="150" height="34" viewBox="0 0 150 34" fill="none" xmlns="http://www.w3.org/2000/svg">
<path d="M12.7541 16.5C12.7541 14.44 13.2141 12.6 14.1341 10.98C15.0741 9.34 16.3441 8.07 17.9441 7.17C19.5641 6.25 21.3741 5.79 23.3741 5.79C25.7141 5.79 27.7641 6.39 29.5241 7.59C31.2841 8.79 32.5141 10.45 33.2141 12.57H28.3841C27.9041 11.57 27.2241 10.82 26.3441 10.32C25.4841 9.82 24.4841 9.57 23.3441 9.57C22.1241 9.57 21.0341 9.86 20.0741 10.44C19.1341 11 18.3941 11.8 17.8541 12.84C17.3341 13.88 17.0741 15.1 17.0741 16.5C17.0741 17.88 17.3341 19.1 17.8541 20.16C18.3941 21.2 19.1341 22.01 20.0741 22.59C21.0341 23.15 22.1241 23.43 23.3441 23.43C24.4841 23.43 25.4841 23.18 26.3441 22.68C27.2241 22.16 27.9041 21.4 28.3841 20.4H33.2141C32.5141 22.54 31.2841 24.21 29.5241 25.41C27.7841 26.59 25.7341 27.18 23.3741 27.18C21.3741 27.18 19.5641 26.73 17.9441 25.83C16.3441 24.91 15.0741 23.64 14.1341 22.02C13.2141 20.4 12.7541 18.56 12.7541 16.5ZM54.1714 6.06V27H49.9714V18.09H41.0014V27H36.8014V6.06H41.0014V14.67H49.9714V6.06H54.1714ZM71.1454 23.01H62.8054L61.4254 27H57.0154L64.5454 6.03H69.4354L76.9654 27H72.5254L71.1454 23.01ZM70.0054 19.65L66.9754 10.89L63.9454 19.65H70.0054ZM83.98 6.06V27H79.78V6.06H83.98ZM113.188 27H108.988L99.478 12.63V27H95.278V6.03H99.478L108.988 20.43V6.03H113.188V27ZM131.919 12.36C131.439 11.48 130.779 10.81 129.939 10.35C129.099 9.89 128.119 9.66 126.999 9.66C125.759 9.66 124.659 9.94 123.699 10.5C122.739 11.06 121.989 11.86 121.449 12.9C120.909 13.94 120.639 15.14 120.639 16.5C120.639 17.9 120.909 19.12 121.449 20.16C122.009 21.2 122.779 22 123.759 22.56C124.739 23.12 125.879 23.4 127.179 23.4C128.779 23.4 130.089 22.98 131.109 22.14C132.129 21.28 132.799 20.09 133.119 18.57H125.919V15.36H137.259V19.02C136.979 20.48 136.379 21.83 135.459 23.07C134.539 24.31 133.349 25.31 131.889 26.07C130.449 26.81 128.829 27.18 127.029 27.18C125.009 27.18 123.179 26.73 121.539 25.83C119.919 24.91 118.639 23.64 117.699 22.02C116.779 20.4 116.319 18.56 116.319 16.5C116.319 14.44 116.779 12.6 117.699 10.98C118.639 9.34 119.919 8.07 121.539 7.17C123.179 6.25 124.999 5.79 126.999 5.79C129.359 5.79 131.409 6.37 133.149 7.53C134.889 8.67 136.089 10.28 136.749 12.36H131.919Z" fill="#6B91C4"/>
</svg>
